PathFileType	4	(X/Y/Z)	 s02c0402.trc
DataRate	CameraRate	NumFrames	NumMarkers	Units	OrigDataRate	OrigDataStartFrame	OrigNumFrames
200	200	4	50	mm	200	1001	2000
Frame#	Time	racr			lacr			c7			jug			rlel			rdr			llel			ldr			s2			lic			ric			lasi			rasi			rpsi			lpsi			rgt			lgt			rth1			rth2			rth3			rth4			rlfc			rmfc			rsh1			rsh2			rsh3			rsh4			rlmal			rmmal			rtoe			rmt5			rmt1			lth1			lth2			lth4			lth3			llfc			lmfc			lsh1			lsh2			lsh3			lsh4			llmal			lmmal			lcal			ltoe			lmt5			SBIKE			LBIKE			RBIKE			
		X1	Y1	Z1	X2	Y2	Z2	X3	Y3	Z3	X4	Y4	Z4	X5	Y5	Z5	X6	Y6	Z6	X7	Y7	Z7	X8	Y8	Z8	X9	Y9	Z9	X10	Y10	Z10	X11	Y11	Z11	X12	Y12	Z12	X13	Y13	Z13	X14	Y14	Z14	X15	Y15	Z15	X16	Y16	Z16	X17	Y17	Z17	X18	Y18	Z18	X19	Y19	Z19	X20	Y20	Z20	X21	Y21	Z21	X22	Y22	Z22	X23	Y23	Z23	X24	Y24	Z24	X25	Y25	Z25	X26	Y26	Z26	X27	Y27	Z27	X28	Y28	Z28	X29	Y29	Z29	X30	Y30	Z30	X31	Y31	Z31	X32	Y32	Z32	X33	Y33	Z33	X34	Y34	Z34	X35	Y35	Z35	X36	Y36	Z36	X37	Y37	Z37	X38	Y38	Z38	X39	Y39	Z39	X40	Y40	Z40	X41	Y41	Z41	X42	Y42	Z42	X43	Y43	Z43	X44	Y44	Z44	X45	Y45	Z45	X46	Y46	Z46	X47	Y47	Z47	X48	Y48	Z48	X49	Y49	Z49	X50	Y50	Z50	
1001	5.0050	653.877678	1148.878545	-55.901548	671.886110	1184.835049	-436.663846	698.442470	1227.254377	-250.507121	615.209762	1109.213345	-249.558170	523.353318	926.971143	-7.350249	678.350527	864.806806	-107.862032	544.329658	995.348680	-603.836304	682.255224	871.561559	-500.821648	138.536063	1145.906038	-267.405940	276.681111	1137.676329	-407.967797	272.060793	1108.126582	-113.608068	313.530119	1099.823450	-381.078882	325.711690	1076.121090	-142.343018	172.429405	1166.328960	-210.681946	175.309724	1183.812108	-295.212380	241.405635	1018.868433	-89.293849	217.403852	1070.759588	-446.211131	301.527199	947.851434	-87.486076	359.297914	881.743202	-96.071620	380.309890	799.311650	-83.170321	389.485430	894.146592	-121.244045	415.013852	668.304923	-127.968365	402.277251	656.750956	-232.242274	396.475947	559.004026	-112.648083	396.478162	472.270306	-132.717885	355.966184	395.826635	-132.378268	408.489045	473.798749	-170.233826	313.427340	286.983479	-143.097623	320.796894	306.628315	-222.711261	511.129581	182.396608	-188.574090	401.678909	193.584565	-128.219548	430.636365	205.031111	-234.495226	333.707041	1001.441958	-475.650673	413.758387	967.689804	-481.767077	434.487965	990.738294	-461.807775	465.761422	897.056412	-498.146521	536.667117	821.508421	-488.585661	540.839945	783.808403	-381.486192	469.464637	746.350747	-506.447642	410.612719	686.012898	-490.069837	323.839440	659.084769	-491.196083	424.293208	669.231684	-454.975918	225.816363	616.228879	-477.268938	241.731041	598.477845	-401.450823	150.303231	632.624931	-431.776568	299.431018	388.089292	-439.241073	221.064222	463.554816	-499.252171	-161.966113	859.444504	-311.740894	37.235245	86.889364	-514.288067	33.883169	83.236326	-114.103528	
1002	5.0100	654.505380	1148.785581	-57.594386	670.981259	1183.521856	-438.349701	698.018580	1226.541178	-252.579936	614.886577	1108.585191	-251.096774	523.489271	927.394974	-7.392635	678.404153	864.594767	-107.613131	543.799082	994.167741	-605.303141	681.899668	871.801849	-500.960504	138.469431	1145.527406	-266.127215	275.402433	1137.544141	-407.623975	272.404899	1107.048787	-113.389893	312.522830	1099.982639	-380.744764	326.114092	1074.958043	-142.157563	172.219564	1165.467968	-209.558040	174.615470	1183.142110	-293.890229	240.723040	1017.099100	-89.098568	216.573768	1071.004350	-446.030290	299.009222	945.361728	-86.803080	355.367748	878.034268	-95.356219	374.619355	795.187836	-82.491407	383.312921	892.089619	-117.020324	406.767619	663.892583	-127.182572	394.328654	652.284012	-231.189791	388.094846	554.812890	-111.609875	388.603452	468.099683	-131.759465	348.406391	391.575077	-131.430721	400.760222	469.725820	-169.135073	306.874708	282.427928	-142.382382	313.942642	302.294745	-221.915037	503.364924	175.233899	-189.042353	394.369331	187.725654	-128.151607	422.705290	198.748786	-235.066856	333.977747	1004.153163	-474.051955	414.681611	972.241555	-479.932532	434.982803	994.634816	-459.020025	467.459873	902.377871	-497.827911	540.403325	828.064817	-488.020721	545.417403	790.446014	-379.525063	474.282742	752.862348	-505.025016	415.414570	692.469872	-488.762308	328.732984	665.507182	-490.228255	429.143385	675.725865	-453.738077	230.304919	622.195979	-476.508517	246.489251	605.258979	-399.790402	154.143525	637.410949	-431.307371	307.388677	395.766793	-438.411796	228.778720	470.123729	-499.091618	-161.894624	859.267533	-312.357518	37.238082	86.884002	-514.298051	33.886381	83.235525	-114.087529	
1003	5.0150	655.236179	1148.702548	-59.366680	670.076035	1182.188561	-440.098899	697.610105	1225.867559	-254.757624	614.574739	1107.898499	-252.697592	523.607431	928.151200	-7.170868	678.497013	864.353080	-107.350461	543.170991	992.996972	-606.703464	681.332959	872.105578	-501.258791	138.238464	1144.948115	-264.810609	274.178709	1137.453473	-407.312100	272.668623	1106.155368	-113.225611	311.560888	1100.142445	-380.582573	326.330361	1074.056249	-142.072667	171.930931	1164.754222	-208.535212	173.784591	1182.693518	-292.928275	239.160447	1015.911061	-89.777894	215.806471	1071.572945	-446.007127	296.830187	943.357242	-85.416462	351.895275	874.713746	-94.645145	368.992235	791.657501	-81.809038	379.817094	887.972568	-116.999176	398.543629	659.976727	-126.382364	386.382960	648.392712	-230.238929	379.785515	551.383655	-110.034622	380.775994	464.599205	-130.514935	340.862502	387.853688	-130.488680	393.113894	466.202476	-167.996995	300.212922	278.427177	-141.661884	307.197487	298.437344	-221.026810	495.193360	168.766251	-188.647652	386.745486	182.239327	-128.068922	414.676680	192.845221	-235.341240	334.466334	1007.201008	-472.289738	415.684642	976.602131	-478.021661	435.485284	999.507134	-457.358316	470.578177	908.040258	-495.110970	544.672548	835.364329	-485.411480	547.881772	796.859342	-377.954476	478.977957	759.256182	-503.383832	420.286780	698.667269	-487.320394	333.715548	671.335395	-489.223564	433.919851	681.910661	-452.293618	235.041952	627.317862	-475.634172	251.527310	611.019816	-398.971733	157.951839	641.476343	-430.909245	318.782997	404.872988	-441.028753	236.640219	476.174862	-498.974625	-161.937063	859.478401	-311.596783	37.244128	86.866039	-514.277324	33.880135	83.233932	-114.091029	
1004	5.0200	655.870306	1148.785811	-61.188565	669.133674	1180.826007	-441.990125	697.234943	1225.133207	-257.053140	614.213457	1107.238103	-254.317245	523.848245	928.734600	-7.209086	678.580435	864.125353	-106.860571	542.469940	991.741131	-608.036966	680.896092	872.325691	-500.839813	137.894066	1144.578550	-263.498566	273.043338	1137.406967	-407.066221	272.837466	1105.716696	-113.041745	310.633021	1100.431113	-380.385134	326.417536	1073.131583	-141.843262	171.657489	1164.333023	-207.645430	173.036155	1182.441855	-292.074940	238.204749	1015.292240	-89.477602	215.319544	1072.393097	-446.010521	294.425773	941.698061	-84.913878	348.032150	871.984396	-94.154031	363.463019	788.567906	-81.193347	376.318143	884.588199	-116.539757	390.532250	656.694757	-125.626860	378.587294	645.051584	-229.456555	371.713230	548.464273	-109.029118	373.022543	461.599002	-129.550728	333.451649	384.744510	-129.423907	385.449837	463.211987	-166.975259	293.417489	274.934606	-140.929047	300.149238	295.200455	-220.181941	486.951735	162.321868	-189.188285	378.945629	177.270052	-128.025252	406.325226	187.548481	-235.649906	334.966451	1010.308672	-470.632405	416.735583	981.154712	-476.465685	436.179903	1004.402887	-455.668512	472.575431	913.549485	-493.708250	548.209990	842.047772	-483.588726	553.541851	805.054883	-374.817203	483.655944	765.354682	-501.656589	425.200058	704.413945	-485.831807	338.818438	676.484442	-488.110519	438.607014	687.681210	-450.572624	239.986525	631.799219	-474.765315	256.508093	616.060672	-398.372829	161.713527	644.838191	-430.628654	327.286455	411.083712	-439.316280	244.694559	481.761544	-498.813130	-162.093080	859.061990	-312.841718	37.233584	86.798094	-514.280222	33.874941	83.238371	-114.090552	
